<svg xmlns="http://www.w3.org/2000/svg" viewBox="0 0 128 128" id="moon">
  <path fill="#f0c419" d="M118.3115,48.5841c0,1.064-.6687,1.9862-1.6272,2.2699l-8.5599,2.6008c-3.678,1.1114-6.509,4.0905-7.6236,7.9682l-4.5697,16.2202c-.2898.9932-1.1592,1.6788-2.14,1.6788s-1.8502-.6856-2.14-1.6788l-4.5697-16.2202c-1.1146-3.8778-3.9456-6.8569-7.6236-7.9682l-8.5599-2.6008c-.9585-.2837-1.6272-1.2059-1.6272-2.2699s.6687-1.9862,1.6272-2.2699l8.5599-2.6008c3.678-1.1114,6.509-4.0905,7.6236-7.9682l4.5697-16.2202c.2898-.9932,1.1592-1.6788,2.14-1.6788s1.8502.6856,2.14,1.6788l4.5697,16.2202c1.1146,3.8778,3.9456,6.8569,7.6236,7.9682l8.5599,2.6008c.9585.2837,1.6272,1.2059,1.6272,2.2699Z"></path>
  <path fill="#f0c419" d="M120.1808,92.8231c-10.5462,19.2231-30.7154,31.1769-52.6385,31.1769-33.0924,0-60-26.9076-60-60S34.4499,4,67.5423,4c1.6385,0,3.2769.0693,4.8923.2078.9923.0923,1.823.8076,2.0308,1.7768.2307.9693-.1847,1.9846-1.0385,2.4923-13.8,8.4692-22.0384,23.1923-22.0384,39.3692,0,25.4539,20.6999,46.1538,46.1538,46.1538,6.8769,0,13.477-1.477,19.6154-4.3616.9-.4385,1.9846-.2307,2.6769.4847.6924.7385.8078,1.823.3462,2.7Z"></path>
  <path fill="#e57e25" d="M79.0808,117.0769c-33.0924,0-60-26.9076-60-60,0-19.4206,9.2746-36.7019,23.6203-47.674C21.98,18.8652,7.5423,39.7666,7.5423,64c0,33.0924,26.9076,60,60,60,13.4218,0,26.1739-4.4981,36.4753-12.384-7.7013,3.522-16.172,5.4609-24.9369,5.4609Z"></path>
</svg>
